<?xml version="1.0" standalone="no"?>
<!DOCTYPE svg PUBLIC "-//W3C//DTD SVG 20010904//EN"
 "http://www.w3.org/TR/2001/REC-SVG-20010904/DTD/svg10.dtd">
<svg version="1.0" xmlns="http://www.w3.org/2000/svg"
 width="2121.000000pt" height="2121.000000pt" viewBox="0 0 2121.000000 2121.000000"
 preserveAspectRatio="xMidYMid meet">
<metadata>
Created by potrace 1.14, written by Peter Selinger 2001-2017
</metadata>
<g transform="translate(0.000000,2121.000000) scale(0.100000,-0.100000)"
fill="#000000" stroke="none">
<path d="M5413 18977 c-2844 -980 -5174 -1784 -5176 -1787 -7 -6 10352 -3574
10373 -3573 10 1 9073 3119 10295 3543 73 25 78 29 55 38 -99 39 -10344 3562
-10358 3561 -9 0 -2344 -802 -5189 -1782z m9372 -346 c2288 -788 4163 -1436
4168 -1440 6 -6 -8396 -2921 -8421 -2921 -6 0 -1866 654 -4134 1454 -2268 799
-4130 1456 -4138 1459 -13 4 -13 5 0 11 81 34 8339 2874 8350 2872 8 -2 1887
-648 4175 -1435z"/>
<path d="M6857 18481 c-2056 -709 -3740 -1291 -3743 -1294 -3 -3 28 -16 68
-30 40 -13 1707 -601 3705 -1306 1998 -704 3638 -1281 3645 -1281 24 0 7568
2614 7560 2620 -8 7 -7447 2569 -7477 2575 -11 2 -1702 -576 -3758 -1284z"/>
<path d="M140 10597 l0 -6534 88 -31 c48 -17 2386 -822 5197 -1790 2811 -968
5118 -1764 5128 -1767 16 -7 17 308 17 6532 l0 6539 -77 26 c-43 14 -2380 819
-5193 1788 -2813 970 -5125 1765 -5137 1768 l-23 4 0 -6535z m2000 5340 l1465
-494 1046 -2642 c575 -1452 1048 -2643 1050 -2645 2 -2 470 867 1039 1931 569
1064 1040 1937 1046 1940 9 3 2259 -748 2290 -766 8 -4 -620 -1077 -1712
-2926 l-1724 -2920 -2 -2546 -3 -2546 -1280 432 -1280 431 -5 2560 -5 2559
-1717 4063 c-945 2235 -1718 4066 -1718 4069 0 9 1 9 1510 -500z"/>
<path d="M15843 15337 l-5203 -1792 0 -6539 c0 -5951 1 -6538 16 -6532 8 3
2336 805 5172 1782 2836 977 5176 1783 5200 1791 l42 15 0 6534 c0 5221 -3
6534 -12 6534 -7 -1 -2354 -807 -5215 -1793z m2382 -157 c908 -104 1538 -547
1940 -1364 52 -105 96 -200 99 -212 6 -18 -83 -81 -711 -509 -395 -269 -909
-619 -1142 -778 -233 -159 -429 -291 -435 -293 -7 -3 -25 28 -44 73 -140 344
-399 604 -702 706 -152 52 -229 62 -445 61 -172 -1 -219 -4 -335 -27 -515
-100 -1110 -357 -1473 -635 -424 -324 -627 -737 -585 -1189 22 -244 144 -436
335 -525 123 -58 226 -72 528 -73 304 0 352 4 925 80 818 108 1240 148 1732
164 710 23 1081 -35 1470 -230 396 -198 771 -578 964 -975 165 -340 236 -687
236 -1154 -1 -1004 -374 -2009 -1118 -3010 -834 -1121 -1996 -1918 -3638
-2492 -554 -193 -1090 -317 -1606 -370 -191 -20 -692 -17 -865 5 -666 85
-1145 298 -1530 682 -304 304 -545 736 -683 1222 l-20 72 1246 713 c686 392
1251 713 1255 713 5 0 24 -45 43 -100 288 -851 1005 -1106 2141 -764 483 145
920 354 1233 590 386 291 665 684 761 1074 31 126 36 326 11 448 -49 234 -178
382 -399 456 -109 37 -238 53 -470 58 -323 8 -605 -14 -1248 -96 -509 -65
-831 -90 -1270 -98 -568 -10 -954 26 -1320 122 -362 94 -591 214 -805 421
-357 345 -532 817 -571 1541 -51 958 238 1930 846 2837 808 1207 1941 2039
3444 2530 625 205 1106 303 1651 340 92 6 459 -3 555 -14z"/>
</g>
</svg>
